<mxfile host="app.diagrams.net" modified="2025-01-29T07:46:18.153Z" agent="Mozilla/5.0 (Macintosh; Intel Mac OS X 10_15_7) AppleWebKit/537.36 (KHTML, like Gecko) Chrome/131.0.0.0 Safari/537.36" version="23.1.5" etag="ePzYbPOjh9u8kBGoxQn9" type="github">
  <diagram name="Page-1" id="8TDIzEvbvMd-63N1nV63">
    <mxGraphModel>
      <root>
        <mxCell id="0" />
        <mxCell id="1" parent="0" />
      </root>
    </mxGraphModel>
  </diagram>
</mxfile>
